<svg width="19" height="17" viewBox="0 0 19 17" fill="none" xmlns="http://www.w3.org/2000/svg">
<path d="M11.5834 16.8334C12.1359 16.8334 12.6658 16.6139 13.0566 16.2232C13.4473 15.8325 13.6667 15.3026 13.6667 14.75C13.6667 14.1975 13.4473 13.6676 13.0566 13.2769C12.6658 12.8862 12.1359 12.6667 11.5834 12.6667C11.0309 12.6667 10.501 12.8862 10.1103 13.2769C9.71957 13.6676 9.50008 14.1975 9.50008 14.75C9.50008 15.3026 9.71957 15.8325 10.1103 16.2232C10.501 16.6139 11.0309 16.8334 11.5834 16.8334ZM4.29174 16.8334C4.84428 16.8334 5.37418 16.6139 5.76488 16.2232C6.15558 15.8325 6.37508 15.3026 6.37508 14.75C6.37508 14.1975 6.15558 13.6676 5.76488 13.2769C5.37418 12.8862 4.84428 12.6667 4.29174 12.6667C3.73921 12.6667 3.20931 12.8862 2.81861 13.2769C2.4279 13.6676 2.20841 14.1975 2.20841 14.75C2.20841 15.3026 2.4279 15.8325 2.81861 16.2232C3.20931 16.6139 3.73921 16.8334 4.29174 16.8334ZM17.873 2.16981C18.133 2.16142 18.3796 2.05223 18.5606 1.86531C18.7416 1.6784 18.8428 1.42842 18.8428 1.16825C18.8428 0.908074 18.7416 0.658098 18.5606 0.471184C18.3796 0.284271 18.133 0.175074 17.873 0.166687H16.674C15.7345 0.166687 14.922 0.81877 14.7178 1.73544L13.4126 7.61252C13.2084 8.52919 12.3959 9.18127 11.4563 9.18127H3.63133L2.12924 3.17085H11.8636C12.1212 3.1591 12.3644 3.0485 12.5425 2.86205C12.7206 2.67561 12.82 2.42767 12.82 2.16981C12.82 1.91195 12.7206 1.66401 12.5425 1.47757C12.3644 1.29113 12.1212 1.18052 11.8636 1.16877H2.12924C1.82473 1.16868 1.5242 1.23802 1.25051 1.37151C0.976816 1.50501 0.737162 1.69915 0.549763 1.93917C0.362364 2.17919 0.232155 2.45878 0.169035 2.75668C0.105913 3.05458 0.111544 3.36295 0.185495 3.65835L1.68758 9.66669C1.79586 10.1002 2.046 10.4851 2.39821 10.7601C2.75042 11.0351 3.18447 11.1845 3.63133 11.1844H11.4563C12.368 11.1845 13.2524 10.8737 13.9636 10.3032C14.6748 9.73281 15.1701 8.93687 15.3678 8.04689L16.674 2.16981H17.873Z" fill="black"/>
</svg>
